<?xml version="1.0" encoding="UTF-8" standalone="no"?>
<!DOCTYPE svg PUBLIC "-//W3C//DTD SVG 1.1//EN" "http://www.w3.org/Graphics/SVG/1.1/DTD/svg11.dtd">
<svg width="100%" height="100%" viewBox="0 0 48 24" version="1.1" xmlns="http://www.w3.org/2000/svg" xmlns:xlink="http://www.w3.org/1999/xlink" xml:space="preserve" xmlns:serif="http://www.serif.com/" style="fill-rule:evenodd;clip-rule:evenodd;stroke-linejoin:round;stroke-miterlimit:2;">
    <path d="M6.547,3.125L6.547,9.133C6.547,9.133 8.664,9.133 9.797,9.047C10.688,8.891 10.852,8.805 11.016,7.914L11.344,6.609L12.313,6.609L12.149,9.461L12.235,12.383L11.258,12.383L11.016,11.242C10.774,10.43 10.446,10.265 9.797,10.187C8.985,10.101 6.547,10.101 6.547,10.101L6.547,15.14C6.547,16.109 7.039,16.523 8.172,16.523L11.586,16.523C12.641,16.523 13.695,16.437 14.352,14.898L15.235,12.945L16.055,12.945C15.969,13.351 15.563,16.929 15.485,17.734C15.485,17.734 12.399,17.656 11.102,17.656L5.25,17.656L1.758,17.734L1.758,16.851L2.891,16.601C3.711,16.437 3.953,16.195 3.953,15.546C3.953,15.546 4.039,13.351 4.039,9.694C4.039,6.046 3.953,3.85 3.953,3.85C3.953,3.123 3.711,2.959 2.891,2.795L1.758,2.555L1.758,1.664L5.172,1.734L11.672,1.734C12.969,1.734 15.156,1.5 15.156,1.5C15.156,1.5 15.078,2.875 14.992,6.125L14.101,6.125L13.773,4.984C13.453,3.523 12.968,2.796 12.07,2.796L6.961,2.796C6.547,2.797 6.547,2.875 6.547,3.125ZM19.703,3.766L20.68,3.766L20.68,7.18L24.016,7.016L23.852,8.563L20.602,8.313L20.602,14.329C20.602,16.032 21.172,16.688 22.149,16.688C23.032,16.688 23.688,16.196 23.93,15.79L24.414,16.36C23.93,17.493 22.555,18.063 21.25,18.063C19.633,18.063 18.32,17.094 18.32,15.227L18.32,8.398L16.382,8.398L16.382,7.586C18.008,7.422 19.219,6.445 19.703,3.766ZM26.695,14.242L27.343,15.789C27.585,16.437 28.155,17.094 29.452,17.094C30.835,17.094 31.405,16.36 31.405,15.469C31.405,12.703 25.96,13.516 25.96,9.781C25.96,7.672 27.663,6.687 29.858,6.687C30.835,6.687 32.296,6.851 33.03,7.179C32.866,7.991 32.78,9.046 32.78,9.859L31.975,9.937L31.405,8.312C31.241,7.914 30.585,7.585 29.78,7.585C28.803,7.585 27.827,7.991 27.827,9.046C27.827,11.562 33.436,10.999 33.436,14.734C33.436,16.851 31.569,17.984 29.288,17.984C27.585,17.984 25.874,17.328 25.874,17.328C26.038,16.359 25.96,15.305 25.874,14.242L26.695,14.242ZM33.031,22.039C33.273,21.148 33.437,20.016 33.601,18.953L34.492,18.875L34.82,20.578C34.898,20.984 35.14,21.312 35.789,21.312C36.844,21.312 38.227,20.664 39.531,18.39C38.953,17.007 37.25,12.546 35.703,9.132C35.297,8.234 35.219,8.155 34.656,7.991L34.242,7.835L34.242,7.015L36.687,7.101L39.687,6.937L39.687,7.75L38.953,7.914C38.383,7.992 38.148,8.312 38.148,8.641C38.148,8.727 38.148,8.805 38.226,8.969C38.382,9.461 39.687,13.11 40.664,15.547C41.469,13.844 43.016,10.024 43.258,9.375C43.344,9.047 43.422,8.969 43.422,8.727C43.422,8.313 43.18,8.071 42.617,7.915L42.039,7.75L42.039,6.938L44.32,7.016L46.429,6.938L46.429,7.75L46.023,8.07C45.211,8.398 45.125,8.476 44.804,9.132L41.234,17.491C39.117,22.288 36.922,22.694 35.382,22.694C34.406,22.695 33.672,22.445 33.031,22.039Z" style="fill-rule:nonzero;"/>
</svg>
