<svg viewBox="0 0 512 512" xmlns="http://www.w3.org/2000/svg"><path d="m256 71.54c60.08 0 67.19.23 90.92 1.31 21.94 1 33.85 4.67 41.78 7.75a74.5 74.5 0 0 1 42.7 42.7c3.08 7.93 6.75 19.84 7.75 41.78 1.08 23.73 1.31 30.84 1.31 90.92s-.23 67.2-1.31 90.92c-1 21.94-4.67 33.85-7.75 41.78a74.52 74.52 0 0 1 -42.7 42.7c-7.93 3.09-19.84 6.75-41.78 7.75-23.72 1.08-30.84 1.31-90.92 1.31s-67.2-.23-90.92-1.31c-21.94-1-33.85-4.67-41.78-7.75a74.5 74.5 0 0 1 -42.7-42.7c-3.08-7.93-6.75-19.84-7.75-41.78-1.08-23.72-1.31-30.84-1.31-90.92s.23-67.19 1.31-90.92c1-21.94 4.67-33.85 7.75-41.78a74.5 74.5 0 0 1 42.7-42.7c7.93-3.08 19.84-6.75 41.78-7.75 23.73-1.08 30.84-1.31 90.92-1.31m0-40.54c-61.1 0-68.77.26-92.76 1.36s-40.31 4.89-54.62 10.45a110.29 110.29 0 0 0 -39.85 26 110.12 110.12 0 0 0 -26 39.85c-5.56 14.31-9.36 30.66-10.45 54.61s-1.32 31.62-1.32 92.73.26 68.77 1.36 92.77 4.9 40.3 10.46 54.61a115.1 115.1 0 0 0 65.8 65.81c14.31 5.56 30.67 9.36 54.62 10.45s31.66 1.36 92.76 1.36 68.77-.26 92.77-1.36 40.3-4.89 54.62-10.45a115.08 115.08 0 0 0 65.8-65.81c5.56-14.31 9.36-30.67 10.46-54.61s1.35-31.66 1.35-92.77-.26-68.77-1.35-92.77-4.9-40.3-10.46-54.61a115.07 115.07 0 0 0 -65.81-65.81c-14.31-5.56-30.66-9.36-54.61-10.45s-31.66-1.36-92.77-1.36z"/><path d="m256 140.46a115.54 115.54 0 1 0 115.54 115.54 115.54 115.54 0 0 0 -115.54-115.54zm0 190.54a75 75 0 1 1 75-75 75 75 0 0 1 -75 75z"/><circle cx="376.1" cy="135.9" r="27"/></svg>